<svg width="35" height="34" viewBox="0 0 35 34" fill="none" xmlns="http://www.w3.org/2000/svg">
<g id="Group">
<path id="Vector" d="M34.6859 11.5869C34.729 5.64077 29.9893 0.642602 24.0001 0.384076C21.5441 0.254813 19.2174 0.987303 17.3215 2.23685C15.4257 0.987303 13.0989 0.254813 10.6429 0.384076C4.73993 0.599514 -0.0427988 5.59768 0.000288864 11.5869C0.000288864 13.4827 0.991305 17.0159 3.53348 18.3516C3.4473 20.3337 3.05951 27.0123 7.28211 31.7088C8.96253 33.6047 11.9356 33.6478 13.6591 31.795C14.3054 31.1056 14.8655 30.1577 15.1241 28.9512C15.4257 27.7017 15.7273 25.8489 15.9858 23.8669C16.2013 22.3157 18.4418 22.3157 18.6573 23.8669C18.9589 25.8058 19.2605 27.6586 19.519 28.9512C19.7775 30.2007 20.3377 31.1056 20.984 31.795C22.7075 33.6478 25.6805 33.6047 27.361 31.7088C31.5836 27.0553 31.1958 20.3337 31.1096 18.3516C33.6087 17.1452 34.6859 13.4827 34.6859 11.5869ZM6.9374 5.42533C6.11874 6.11474 5.42934 6.9334 4.8692 7.88133C4.09362 9.26013 3.66274 10.8113 3.66274 12.3624C3.66274 12.8364 3.27495 13.2242 2.7579 13.2242C2.24085 13.2242 1.85306 12.8364 1.85306 12.3194C1.85306 10.4666 2.37011 8.57073 3.27495 6.97649C3.92127 5.85621 4.73993 4.86519 5.73095 4.00344C6.11874 3.70183 6.67888 3.74491 6.98049 4.1327C7.36828 4.56358 7.32519 5.12372 6.9374 5.42533ZM8.87635 4.04653L8.704 4.1327C8.57474 4.21888 8.44547 4.21888 8.27312 4.21888C7.97151 4.21888 7.62681 4.04653 7.49754 3.74491C7.28211 3.31404 7.45446 2.7539 7.88533 2.53846L8.05768 2.45228C8.48856 2.23685 9.0487 2.4092 9.26414 2.84007C9.47958 3.27095 9.30723 3.83109 8.87635 4.04653Z" fill="#516EFF"/>
</g>
</svg>
