<svg width="16" height="16" viewBox="0 0 16 16" fill="none" xmlns="http://www.w3.org/2000/svg">
<g id="Group">
<g id="Group_2">
<path id="Vector" d="M14.6301 5.42905H11.1831V1.98203C11.1831 1.33572 10.666 0.818665 10.0197 0.818665H6.74506C6.09875 0.818665 5.5817 1.33572 5.5817 1.98203V5.42905H2.13468C1.48837 5.42905 0.971313 5.9461 0.971313 6.59241V9.86708C0.971313 10.5134 1.48837 11.0304 2.13468 11.0304H5.5817V14.4775C5.5817 15.1238 6.09875 15.6408 6.74506 15.6408H10.0197C10.666 15.6408 11.1831 15.1238 11.1831 14.4775V11.0304H14.6301C15.2764 11.0304 15.7935 10.5134 15.7935 9.86708V6.59241C15.7935 5.9461 15.2764 5.42905 14.6301 5.42905ZM7.43446 4.95508C7.43446 5.2567 7.21903 5.47213 6.91741 5.47213C6.6158 5.47213 6.40036 5.2567 6.40036 4.95508V3.70554C6.40036 3.40393 6.6158 3.18849 6.91741 3.18849C7.21903 3.18849 7.43446 3.40393 7.43446 3.70554V4.95508ZM7.43446 2.19747C7.43446 2.456 7.21903 2.71452 6.91741 2.71452C6.6158 2.71452 6.40036 2.49908 6.40036 2.19747V2.06821C6.40036 1.76659 6.6158 1.55116 6.91741 1.55116C7.21903 1.55116 7.43446 1.76659 7.43446 2.06821V2.19747Z" fill="#516EFF"/>
</g>
</g>
</svg>
