<svg width="198" height="158" viewBox="0 0 198 158" fill="none" xmlns="http://www.w3.org/2000/svg">
<g id="Group 146">
<rect id="Rectangle 73" x="12.8977" y="12.1494" width="185.102" height="145.851" rx="26.0324" fill="#516EFF"/>
<rect id="Rectangle 72" y="0.712402" width="188.078" height="148.248" rx="19.5348" fill="white"/>
<g id="Group 124">
<circle id="Ellipse 25" cx="163.706" cy="26.5228" r="3.95424" fill="#777777"/>
<circle id="Ellipse 26" cx="24.3725" cy="26.5228" r="3.95424" fill="#777777"/>
<rect id="Rectangle 47" x="38.105" y="34.7908" width="111.438" height="1.15033" rx="0.575163" fill="#777777"/>
<rect id="Rectangle 49" x="76.4966" y="23.1436" width="35.0849" height="5.60784" rx="2.80392" fill="#777777"/>
<rect id="Rectangle 50" x="38.105" y="24.294" width="33.0719" height="4.45751" rx="2.22876" fill="#777777"/>
<rect id="Rectangle 51" x="118.052" y="24.294" width="33.0719" height="4.45751" rx="2.22876" fill="#777777"/>
<g id="Group 37">
<circle id="Ellipse 23" cx="42.1068" cy="70.651" r="3.32924" fill="#777777"/>
<circle id="Ellipse 37" cx="42.1068" cy="83.9681" r="3.32924" fill="#777777"/>
<circle id="Ellipse 51" cx="42.1068" cy="97.2851" r="3.32924" fill="#777777"/>
<circle id="Ellipse 65" cx="42.1068" cy="110.602" r="3.32924" fill="#777777"/>
<circle id="Ellipse 72" cx="42.1068" cy="123.919" r="3.32924" fill="#777777"/>
<circle id="Ellipse 24" cx="59.5402" cy="70.651" r="3.32924" fill="#777777"/>
<circle id="Ellipse 74" cx="59.53" cy="83.967" r="7.49875" fill="#777777" stroke="white" stroke-width="6.37006"/>
<circle id="Ellipse 75" cx="77.0723" cy="97.3395" r="7.49875" fill="#777777" stroke="white" stroke-width="6.37006"/>
<circle id="Ellipse 52" cx="59.5402" cy="97.2851" r="3.32924" fill="#777777"/>
<circle id="Ellipse 66" cx="59.5402" cy="110.602" r="3.32924" fill="#777777"/>
<circle id="Ellipse 73" cx="59.5402" cy="123.919" r="3.32924" fill="#777777"/>
<circle id="Ellipse 25_2" cx="76.9733" cy="70.651" r="3.32924" fill="#777777"/>
<circle id="Ellipse 39" cx="76.9733" cy="83.9681" r="3.32924" fill="#777777"/>
<circle id="Ellipse 67" cx="76.9733" cy="110.602" r="3.32924" fill="#777777"/>
<circle id="Ellipse 26_2" cx="94.4066" cy="70.651" r="3.32924" fill="#777777"/>
<circle id="Ellipse 40" cx="94.4066" cy="83.9681" r="3.32924" fill="#777777"/>
<circle id="Ellipse 54" cx="94.4066" cy="97.2851" r="3.32924" fill="#777777"/>
<circle id="Ellipse 68" cx="94.4066" cy="110.602" r="3.32924" fill="#777777"/>
<circle id="Ellipse 27" cx="111.839" cy="70.651" r="3.32924" fill="#777777"/>
<circle id="Ellipse 41" cx="111.839" cy="83.9681" r="3.32924" fill="#777777"/>
<circle id="Ellipse 55" cx="111.839" cy="97.2851" r="3.32924" fill="#777777"/>
<circle id="Ellipse 69" cx="111.839" cy="110.602" r="3.32924" fill="#777777"/>
<circle id="Ellipse 28" cx="129.272" cy="70.651" r="3.32924" fill="#777777"/>
<circle id="Ellipse 42" cx="129.272" cy="83.9681" r="3.32924" fill="#777777"/>
<circle id="Ellipse 56" cx="129.272" cy="97.2851" r="3.32924" fill="#777777"/>
<circle id="Ellipse 70" cx="129.272" cy="110.602" r="3.32924" fill="#777777"/>
<circle id="Ellipse 29" cx="146.706" cy="70.651" r="3.32924" fill="#777777"/>
<circle id="Ellipse 43" cx="146.706" cy="83.9681" r="3.32924" fill="#777777"/>
<circle id="Ellipse 57" cx="146.706" cy="97.2851" r="3.32924" fill="#777777"/>
<circle id="Ellipse 71" cx="146.706" cy="110.602" r="3.32924" fill="#777777"/>
<circle id="Ellipse 10" cx="42.1671" cy="54.2471" r="4.35828" fill="#777777"/>
<circle id="Ellipse 12" cx="59.6002" cy="54.2469" r="4.35828" fill="#777777"/>
<circle id="Ellipse 14" cx="77.0333" cy="54.2469" r="4.35828" fill="#777777"/>
<circle id="Ellipse 16" cx="94.4667" cy="54.2469" r="4.35828" fill="#777777"/>
<circle id="Ellipse 18" cx="111.899" cy="54.2469" r="4.35828" fill="#777777"/>
<circle id="Ellipse 20" cx="129.333" cy="54.2469" r="4.35828" fill="#777777"/>
<circle id="Ellipse 22" cx="146.766" cy="54.2469" r="4.35828" fill="#777777"/>
</g>
<rect id="Rectangle 48" x="72.3269" y="34.3595" width="43.081" height="2.01307" rx="1.00653" fill="#777777"/>
</g>
</g>
</svg>
