<svg width="26" height="9" viewBox="0 0 26 9" fill="none" xmlns="http://www.w3.org/2000/svg">
<g id="Group">
<path id="Vector" d="M17.37 0C10.3036 0 4.01278 3.40393 0.0917969 8.61753C0.565761 8.53136 1.08281 8.48827 1.59987 8.44518C1.77222 8.44518 1.98765 8.44518 2.16 8.44518C2.67706 8.44518 3.19411 8.48827 3.71116 8.53136C3.79734 8.44518 3.9266 8.31592 4.01278 8.22974C7.58905 4.65347 12.3287 2.71452 17.37 2.71452C19.3951 2.71452 21.3771 3.01614 23.273 3.66245C23.6177 3.66245 25.729 3.66245 25.729 3.66245C25.729 3.66245 25.729 1.76659 25.729 1.68042C23.1868 0.603227 20.343 0 17.37 0Z" fill="#516EFF"/>
</g>
</svg>
